<svg width="200" height="35" viewBox="0 0 200 35" fill="none" xmlns="http://www.w3.org/2000/svg">
<path d="M190.166 22.6738C190.839 22.5281 191.431 22.3642 191.941 22.1821C192.451 21.9999 192.916 21.7723 193.334 21.4991C193.772 21.2259 194.181 20.889 194.564 20.4884C194.964 20.0877 195.392 19.596 195.848 19.0132H198.661L197.869 22.6738H200L199.645 24.5041H197.487L196.367 29.8311C196.276 30.25 196.203 30.6233 196.148 30.9511C196.094 31.2789 196.066 31.5339 196.066 31.716C196.066 32.0803 196.194 32.3079 196.449 32.399C196.722 32.49 197.223 32.5356 197.951 32.5356L197.541 34.4205C197.414 34.4569 197.214 34.4842 196.94 34.5025C196.685 34.5207 196.394 34.5389 196.066 34.5571C195.757 34.5935 195.429 34.6117 195.083 34.6117C194.755 34.6299 194.464 34.639 194.209 34.639C193.753 34.639 193.307 34.6026 192.87 34.5298C192.433 34.4751 192.041 34.3568 191.695 34.1746C191.349 33.9743 191.067 33.692 190.848 33.3278C190.648 32.9635 190.548 32.4718 190.548 31.8526C190.548 31.6341 190.557 31.3609 190.575 31.0331C190.612 30.7053 190.675 30.341 190.767 29.9404L191.914 24.5041H189.783L190.166 22.6738Z" fill="white"/>
<path d="M184.197 26.1161C184.215 26.025 184.233 25.934 184.251 25.8429C184.27 25.7519 184.279 25.6517 184.279 25.5424C184.279 25.2146 184.215 24.9141 184.088 24.6409C183.978 24.3495 183.751 24.2038 183.405 24.2038C183.095 24.2038 182.785 24.3404 182.476 24.6136C182.166 24.8686 182.011 25.2146 182.011 25.6517C182.011 25.9431 182.084 26.1798 182.23 26.362C182.394 26.5259 182.603 26.6625 182.858 26.7717C183.113 26.881 183.395 26.9721 183.705 27.0449C184.033 27.1178 184.352 27.1906 184.661 27.2634C185.098 27.3727 185.508 27.5093 185.891 27.6732C186.291 27.8189 186.646 28.0192 186.956 28.2742C187.266 28.5292 187.511 28.8479 187.693 29.2303C187.876 29.5946 187.967 30.0499 187.967 30.5962C187.967 31.3611 187.785 32.0077 187.42 32.5358C187.074 33.0457 186.583 33.4646 185.945 33.7924C185.326 34.102 184.588 34.3206 183.732 34.4481C182.895 34.5756 181.993 34.6393 181.028 34.6393C179.553 34.6393 178.333 34.53 177.367 34.3115C176.402 34.0929 175.728 33.8835 175.346 33.6832L175.919 30.9514H179.607C179.589 31.0424 179.58 31.1335 179.58 31.2245C179.58 31.2974 179.58 31.3794 179.58 31.4704C179.58 31.8893 179.671 32.2262 179.853 32.4812C180.054 32.7179 180.39 32.8363 180.864 32.8363C181.392 32.8363 181.765 32.6906 181.984 32.3992C182.221 32.0896 182.339 31.8073 182.339 31.5524C182.339 31.2974 182.239 31.0789 182.039 30.8967C181.857 30.6964 181.62 30.5325 181.328 30.405C181.037 30.2593 180.709 30.1409 180.345 30.0499C179.999 29.9406 179.662 29.8404 179.334 29.7494C179.097 29.6947 178.824 29.6037 178.515 29.4762C178.223 29.3487 177.941 29.1666 177.668 28.9298C177.395 28.6931 177.167 28.3926 176.985 28.0283C176.803 27.6459 176.712 27.1724 176.712 26.6078C176.712 25.8065 176.903 25.1418 177.285 24.6136C177.686 24.0672 178.196 23.6302 178.815 23.3023C179.453 22.9745 180.163 22.7378 180.946 22.5921C181.747 22.4464 182.549 22.3735 183.35 22.3735C184.352 22.3735 185.299 22.4646 186.191 22.6467C187.083 22.8288 187.812 23.0656 188.376 23.357L187.748 26.1161H184.197Z" fill="white"/>
<path d="M166.826 28.9298C166.753 29.3305 166.698 29.713 166.662 30.0772C166.644 30.4414 166.635 30.7692 166.635 31.0606C166.635 31.2245 166.644 31.4067 166.662 31.607C166.68 31.8073 166.717 31.9986 166.771 32.1807C166.844 32.3446 166.935 32.4903 167.045 32.6178C167.172 32.727 167.345 32.7817 167.564 32.7817C167.727 32.7817 167.91 32.727 168.11 32.6178C168.328 32.5085 168.538 32.3537 168.738 32.1534C168.957 31.953 169.157 31.7072 169.339 31.4158C169.54 31.1244 169.694 30.7966 169.804 30.4323H174.284L173.574 33.3553C173.209 33.5921 172.79 33.7924 172.317 33.9563C171.843 34.1202 171.343 34.2568 170.814 34.3661C170.286 34.4572 169.749 34.5209 169.203 34.5573C168.656 34.612 168.137 34.6393 167.646 34.6393C166.735 34.6393 165.888 34.5573 165.105 34.3934C164.322 34.2295 163.639 33.9472 163.056 33.5466C162.473 33.1459 162.009 32.6178 161.663 31.9621C161.335 31.2883 161.171 30.4596 161.171 29.4762C161.171 28.5838 161.308 27.7096 161.581 26.8537C161.872 25.9977 162.346 25.2419 163.001 24.5863C163.675 23.9124 164.568 23.3752 165.679 22.9745C166.808 22.5739 168.21 22.3735 169.886 22.3735C171.707 22.3735 173.073 22.6558 173.983 23.2204C174.912 23.785 175.377 24.6682 175.377 25.8702C175.377 26.362 175.304 26.8992 175.158 27.482C175.012 28.0466 174.794 28.5292 174.502 28.9298H166.826ZM170.459 25.679C170.459 25.1144 170.368 24.732 170.186 24.5317C170.004 24.3313 169.785 24.2312 169.53 24.2312C169.239 24.2312 168.966 24.3313 168.711 24.5317C168.474 24.7138 168.256 24.9687 168.055 25.2966C167.855 25.6062 167.673 25.9704 167.509 26.3893C167.345 26.7899 167.208 27.2179 167.099 27.6732H170.213C170.25 27.4547 170.286 27.227 170.323 26.9903C170.359 26.7899 170.386 26.5714 170.405 26.3346C170.441 26.0979 170.459 25.8793 170.459 25.679Z" fill="white"/>
<path d="M148.062 22.6738H153.854L154.974 30.7053L158.962 22.6738H161.858L155.657 34.4205H149.947L148.062 22.6738Z" fill="white"/>
<path d="M138.633 24.4224C139.015 24.0581 139.443 23.7212 139.917 23.4116C140.336 23.1566 140.828 22.9199 141.392 22.7013C141.957 22.4828 142.585 22.3735 143.277 22.3735C144.224 22.3735 145.007 22.6194 145.626 23.1111C146.246 23.5846 146.555 24.2403 146.555 25.078C146.555 25.3148 146.528 25.6062 146.473 25.9522C146.419 26.28 146.355 26.626 146.282 26.9903C146.209 27.3545 146.127 27.7279 146.036 28.1103C145.963 28.4745 145.9 28.8024 145.845 29.0937L144.698 34.4207H139.152L140.655 27.2908C140.691 27.054 140.736 26.8173 140.791 26.5805C140.846 26.3255 140.873 26.0979 140.873 25.8975C140.873 25.6244 140.8 25.4058 140.655 25.2419C140.527 25.0598 140.327 24.9687 140.054 24.9687C139.726 24.9687 139.407 25.0871 139.097 25.3239C138.806 25.5606 138.578 25.761 138.414 25.9249L136.611 34.4207H131.039L133.525 22.674H137.977L138.469 24.4224H138.633Z" fill="white"/>
<path d="M128.302 34.4206H122.401L126.089 17.0737H132.017L128.302 34.4206Z" fill="white"/>
<path d="M118.32 5.6001L119.14 13.6316L123.456 5.6001H126.352L119.768 17.3468C119.113 18.4942 118.448 19.3774 117.774 19.9967C117.1 20.6159 116.363 21.0712 115.561 21.3625C114.778 21.6539 113.904 21.8179 112.939 21.8543C111.992 21.9089 110.908 21.9362 109.688 21.9362L110.098 20.0513C110.699 20.0513 111.254 20.0422 111.764 20.024C112.292 20.0058 112.711 19.9511 113.021 19.8601C113.44 19.7508 113.74 19.5505 113.922 19.2591C114.104 18.9859 114.195 18.5761 114.195 18.0298C114.195 17.6655 114.159 17.2466 114.086 16.7731C114.031 16.2996 113.968 15.7988 113.895 15.2707L112.556 5.6001H118.32Z" fill="white"/>
<path d="M98.8912 6.61107C99.82 6.15577 100.767 5.82795 101.732 5.62762C102.716 5.40908 103.808 5.2998 105.01 5.2998C106.176 5.2998 107.141 5.39086 107.906 5.57298C108.671 5.7551 109.281 6.01918 109.736 6.3652C110.192 6.71123 110.51 7.121 110.693 7.59451C110.875 8.06802 110.966 8.60528 110.966 9.20627C110.966 9.5523 110.938 9.92564 110.884 10.3263C110.847 10.727 110.802 11.0639 110.747 11.3371L109.463 17.347H105.065L104.573 15.5987H104.409C103.827 16.2361 103.144 16.7278 102.361 17.0738C101.596 17.4017 100.831 17.5656 100.066 17.5656C99.6287 17.5656 99.2008 17.5018 98.7819 17.3743C98.363 17.2469 97.9897 17.0556 97.6619 16.8007C97.334 16.5275 97.07 16.1906 96.8696 15.7899C96.6693 15.371 96.5691 14.8702 96.5691 14.2874C96.5691 13.3404 96.8241 12.5937 97.334 12.0473C97.8622 11.4828 98.5451 11.0639 99.3829 10.7907C100.239 10.4993 101.195 10.3172 102.251 10.2444C103.326 10.1715 104.4 10.1351 105.475 10.1351C105.511 9.95296 105.557 9.69799 105.611 9.37018C105.666 9.02415 105.693 8.72365 105.693 8.46868C105.693 8.14087 105.602 7.84037 105.42 7.56719C105.256 7.2758 104.901 7.13011 104.355 7.13011C103.717 7.13011 103.244 7.32133 102.934 7.70378C102.643 8.06802 102.452 8.51422 102.361 9.04236H98.3721L98.8912 6.61107ZM105.174 11.419H104.683C104.154 11.419 103.699 11.4919 103.317 11.6376C102.952 11.7651 102.652 11.9381 102.415 12.1566C102.197 12.3752 102.033 12.621 101.923 12.8942C101.814 13.1674 101.76 13.4406 101.76 13.7137C101.76 14.1508 101.869 14.4786 102.087 14.6972C102.324 14.9157 102.597 15.025 102.907 15.025C103.289 15.025 103.663 14.8884 104.027 14.6152C104.409 14.342 104.646 13.9778 104.737 13.5225L105.174 11.419Z" fill="white"/>
<path d="M78.8368 17.3469L82.5247 0H89.8733C91.0024 0 91.9859 0.118378 92.8236 0.355134C93.6796 0.573678 94.3807 0.947023 94.9271 1.47517C95.4917 2.00332 95.9105 2.69537 96.1837 3.55133C96.4751 4.4073 96.6208 5.45448 96.6208 6.6929C96.6208 8.02237 96.4478 9.32453 96.1018 10.5994C95.7739 11.8742 95.2185 13.0124 94.4354 14.0141C93.6523 15.0158 92.6233 15.8262 91.3484 16.4454C90.0918 17.0464 88.5347 17.3469 86.6771 17.3469H78.8368ZM86.3219 15.4346C86.9229 15.4346 87.4511 15.1888 87.9064 14.6971C88.3799 14.1871 88.7806 13.5497 89.1084 12.7848C89.4544 12.0017 89.7367 11.1457 89.9552 10.2169C90.192 9.26989 90.3741 8.35929 90.5016 7.48512C90.6473 6.61094 90.7474 5.82783 90.8021 5.13577C90.8749 4.44372 90.9114 3.952 90.9114 3.6606C90.9114 3.09603 90.793 2.65895 90.5562 2.34934C90.3377 2.02153 89.9461 1.85762 89.3815 1.85762H88.0703L85.1473 15.4346H86.3219Z" fill="white"/>
<path d="M66.9768 15.6123C67.3592 15.2481 67.7872 14.9112 68.2607 14.6016C68.6796 14.3466 69.1713 14.1098 69.7359 13.8913C70.3005 13.6727 70.9288 13.5635 71.6208 13.5635C72.5678 13.5635 73.351 13.8093 73.9702 14.3011C74.5894 14.7746 74.899 15.4302 74.899 16.268C74.899 16.5047 74.8717 16.7961 74.817 17.1421C74.7624 17.4699 74.6986 17.816 74.6258 18.1802C74.553 18.5444 74.471 18.9178 74.3799 19.3002C74.3071 19.6645 74.2433 19.9923 74.1887 20.2837L73.0414 25.6107H67.4958L68.9983 18.4807C69.0347 18.2439 69.0803 18.0072 69.1349 17.7704C69.1895 17.5155 69.2168 17.2878 69.2168 17.0875C69.2168 16.8143 69.144 16.5958 68.9983 16.4319C68.8708 16.2497 68.6705 16.1587 68.3973 16.1587C68.0695 16.1587 67.7508 16.2771 67.4412 16.5138C67.1498 16.7506 66.9221 16.9509 66.7582 17.1148L64.9552 25.6107H59.3824L61.8683 13.864H66.3211L66.8129 15.6123H66.9768Z" fill="white"/>
<path d="M50.6714 20.1198C50.5985 20.5204 50.5439 20.9029 50.5075 21.2671C50.4892 21.6314 50.4801 21.9592 50.4801 22.2506C50.4801 22.4145 50.4892 22.5966 50.5075 22.7969C50.5257 22.9973 50.5621 23.1885 50.6167 23.3706C50.6896 23.5345 50.7806 23.6802 50.8899 23.8077C51.0174 23.917 51.1904 23.9716 51.409 23.9716C51.5729 23.9716 51.755 23.917 51.9553 23.8077C52.1739 23.6984 52.3833 23.5436 52.5836 23.3433C52.8022 23.143 53.0025 22.8971 53.1846 22.6057C53.3849 22.3143 53.5398 21.9865 53.649 21.6223H58.1292L57.4189 24.5453C57.0547 24.782 56.6358 24.9824 56.1623 25.1463C55.6888 25.3102 55.1879 25.4468 54.6598 25.5561C54.1316 25.6471 53.5944 25.7109 53.048 25.7473C52.5017 25.8019 51.9826 25.8292 51.4909 25.8292C50.5803 25.8292 49.7335 25.7473 48.9503 25.5834C48.1672 25.4195 47.4843 25.1372 46.9015 24.7365C46.3187 24.3359 45.8543 23.8077 45.5083 23.1521C45.1805 22.4782 45.0166 21.6496 45.0166 20.6661C45.0166 19.7738 45.1531 18.8996 45.4263 18.0436C45.7177 17.1877 46.1912 16.4319 46.8469 15.7762C47.5207 15.1024 48.4131 14.5651 49.524 14.1645C50.6532 13.7638 52.0555 13.5635 53.731 13.5635C55.5522 13.5635 56.9181 13.8458 57.8287 14.4103C58.7575 14.9749 59.2219 15.8582 59.2219 17.0602C59.2219 17.5519 59.149 18.0891 59.0033 18.6719C58.8576 19.2365 58.6391 19.7191 58.3477 20.1198H50.6714ZM54.3047 16.8689C54.3047 16.3044 54.2136 15.9219 54.0315 15.7216C53.8494 15.5213 53.6308 15.4211 53.3758 15.4211C53.0845 15.4211 52.8113 15.5213 52.5563 15.7216C52.3196 15.9037 52.101 16.1587 51.9007 16.4865C51.7003 16.7961 51.5182 17.1603 51.3543 17.5792C51.1904 17.9799 51.0538 18.4079 50.9445 18.8632H54.0588C54.0952 18.6446 54.1316 18.417 54.1681 18.1802C54.2045 17.9799 54.2318 17.7613 54.25 17.5246C54.2864 17.2878 54.3047 17.0693 54.3047 16.8689Z" fill="white"/>
<path d="M35.7319 20.1198C35.659 20.5204 35.6044 20.9029 35.568 21.2671C35.5498 21.6314 35.5406 21.9592 35.5406 22.2506C35.5406 22.4145 35.5498 22.5966 35.568 22.7969C35.5862 22.9973 35.6226 23.1885 35.6772 23.3706C35.7501 23.5345 35.8411 23.6802 35.9504 23.8077C36.0779 23.917 36.2509 23.9716 36.4695 23.9716C36.6334 23.9716 36.8155 23.917 37.0158 23.8077C37.2344 23.6984 37.4438 23.5436 37.6441 23.3433C37.8627 23.143 38.063 22.8971 38.2451 22.6057C38.4455 22.3143 38.6003 21.9865 38.7095 21.6223H43.1897L42.4794 24.5453C42.1152 24.782 41.6963 24.9824 41.2228 25.1463C40.7493 25.3102 40.2484 25.4468 39.7203 25.5561C39.1921 25.6471 38.6549 25.7109 38.1085 25.7473C37.5622 25.8019 37.0431 25.8292 36.5514 25.8292C35.6408 25.8292 34.794 25.7473 34.0108 25.5834C33.2277 25.4195 32.5448 25.1372 31.962 24.7365C31.3792 24.3359 30.9148 23.8077 30.5688 23.1521C30.241 22.4782 30.0771 21.6496 30.0771 20.6661C30.0771 19.7738 30.2136 18.8996 30.4868 18.0436C30.7782 17.1877 31.2517 16.4319 31.9074 15.7762C32.5812 15.1024 33.4736 14.5651 34.5845 14.1645C35.7137 13.7638 37.116 13.5635 38.7915 13.5635C40.6127 13.5635 41.9786 13.8458 42.8892 14.4103C43.818 14.9749 44.2824 15.8582 44.2824 17.0602C44.2824 17.5519 44.2095 18.0891 44.0638 18.6719C43.9181 19.2365 43.6996 19.7191 43.4082 20.1198H35.7319ZM39.3652 16.8689C39.3652 16.3044 39.2741 15.9219 39.092 15.7216C38.9099 15.5213 38.6913 15.4211 38.4363 15.4211C38.145 15.4211 37.8718 15.5213 37.6168 15.7216C37.3801 15.9037 37.1615 16.1587 36.9612 16.4865C36.7608 16.7961 36.5787 17.1603 36.4148 17.5792C36.2509 17.9799 36.1143 18.4079 36.0051 18.8632H39.1193C39.1557 18.6446 39.1921 18.417 39.2286 18.1802C39.265 17.9799 39.2923 17.7613 39.3105 17.5246C39.3469 17.2878 39.3652 17.0693 39.3652 16.8689Z" fill="white"/>
<path d="M18.7839 13.864H23.2367L23.6465 15.9128H23.8377C24.2566 15.2572 24.7938 14.7017 25.4494 14.2464C26.1051 13.7911 26.9701 13.5635 28.0446 13.5635C28.1175 13.5635 28.2268 13.5726 28.3725 13.5908C28.5364 13.5908 28.7094 13.6181 28.8915 13.6727C29.0918 13.7092 29.2922 13.7729 29.4925 13.864C29.711 13.9368 29.9205 14.0461 30.1208 14.1918L28.9188 19.8193H25.9412C25.9047 18.6901 25.8046 17.907 25.6407 17.4699C25.4768 17.0146 25.2127 16.787 24.8484 16.787C24.6663 16.787 24.466 16.8325 24.2474 16.9236C24.0471 16.9964 23.8377 17.1694 23.6191 17.4426L21.8708 25.6107H16.2979L18.7839 13.864Z" fill="white"/>
<path d="M8.74174 17.6886H15.8171L14.2326 25.6108H11.0091L10.4901 23.8624H10.3808C9.90731 24.4088 9.34274 24.8732 8.68711 25.2557C8.04969 25.6381 7.21194 25.8293 6.17386 25.8293C5.37253 25.8293 4.59852 25.7019 3.85183 25.4469C3.12335 25.1737 2.46772 24.7548 1.88494 24.1903C1.32037 23.6075 0.865068 22.8517 0.519041 21.9229C0.173014 20.9941 0 19.874 0 18.5628C0 17.1422 0.218543 15.7945 0.655631 14.5197C1.09272 13.2449 1.74835 12.1248 2.62252 11.1596C3.4967 10.1762 4.58942 9.40215 5.90068 8.83758C7.21194 8.27301 8.74174 7.99072 10.4901 7.99072C11.8378 7.99072 13.0124 8.14552 14.0141 8.45513C15.0158 8.76473 15.9628 9.11076 16.8552 9.49321L15.8171 14.7929H11.2004C11.2186 14.5926 11.2459 14.3558 11.2823 14.0826C11.3187 13.8094 11.3461 13.5272 11.3643 13.2358C11.3825 12.9262 11.4007 12.6257 11.4189 12.3343C11.4371 12.0429 11.4462 11.7879 11.4462 11.5694C11.4462 11.4237 11.4371 11.2598 11.4189 11.0777C11.4007 10.8773 11.3552 10.6861 11.2823 10.504C11.2095 10.3219 11.1002 10.1762 10.9545 10.0669C10.8088 9.9394 10.5994 9.87566 10.3262 9.87566C9.85267 9.87566 9.41559 10.076 9.01492 10.4767C8.63247 10.8591 8.28644 11.3781 7.97684 12.0338C7.66724 12.6712 7.39406 13.3997 7.1573 14.2192C6.93876 15.0388 6.74753 15.8765 6.58363 16.7325C6.43793 17.5702 6.31955 18.3989 6.22849 19.2184C6.15564 20.0197 6.11922 20.7209 6.11922 21.3219C6.11922 21.504 6.12833 21.7317 6.14654 22.0048C6.16475 22.278 6.21939 22.5512 6.31045 22.8244C6.41972 23.0793 6.56541 23.307 6.74753 23.5073C6.94786 23.6894 7.23015 23.7805 7.59439 23.7805C8.19538 23.7805 8.77817 23.4527 9.34274 22.797C9.90731 22.1414 10.3353 21.0487 10.6267 19.5189H8.33197L8.74174 17.6886Z" fill="white"/>
</svg>
