<?xml version="1.0" encoding="UTF-8"?>
<svg id="Layer_1" data-name="Layer 1" xmlns="http://www.w3.org/2000/svg" viewBox="0 0 2000 782.65">
  <defs>
    <style>
      .cls-1 {
        fill: #fff;
      }
    </style>
  </defs>
  <g>
    <path class="cls-1" d="M107.57,701.13c-4,4.22-8.58,7.52-13.73,9.92-5.16,2.4-10.86,3.6-17.11,3.6-9.01,0-17-2.21-23.98-6.65-6.97-4.43-12.42-10.53-16.35-18.31-3.92-7.77-5.89-16.75-5.89-26.92s1.92-19.11,5.78-26.81c3.85-7.7,9.23-13.76,16.13-18.2,6.9-4.43,14.78-6.65,23.65-6.65,6.1,0,11.77,1.13,17,3.38,5.23,2.25,9.88,5.38,13.95,9.37,4.07,4,7.34,8.68,9.81,14.06l27.68-10.24c-3.63-8.57-8.83-16.16-15.58-22.78-6.76-6.61-14.64-11.77-23.65-15.48-9.01-3.71-18.74-5.56-29.21-5.56-14.82,0-27.94,3.38-39.34,10.14-11.41,6.76-20.38,16.06-26.92,27.9-6.54,11.84-9.81,25.47-9.81,40.87s3.27,29.03,9.81,40.87c6.54,11.85,15.55,21.14,27.03,27.9,11.48,6.76,24.63,10.14,39.45,10.14,10.6,0,20.41-1.89,29.42-5.67,9.01-3.78,16.89-9.08,23.65-15.91,6.76-6.83,11.95-14.67,15.58-23.54l-27.68-10.03c-2.47,5.52-5.7,10.39-9.7,14.6Z"/>
    <path class="cls-1" d="M234.64,633.78c-7.34-4.21-16.53-6.32-27.57-6.32-9.15,0-16.89,1.42-23.21,4.25-6.32,2.83-11.44,6.47-15.37,10.9-3.92,4.43-6.9,8.97-8.94,13.62l25.28,8.72c2.62-4.21,5.81-7.34,9.59-9.37,3.78-2.03,7.99-3.05,12.64-3.05,5.08,0,9.12,1.27,12.1,3.81,2.98,2.54,5.16,6.14,6.54,10.79.55,1.87.97,3.93,1.3,6.1h-25.6c-14.1,0-25.03,2.94-32.8,8.83-7.77,5.89-11.66,14.64-11.66,26.26,0,10.61,3.6,18.82,10.79,24.63,7.19,5.81,17.33,8.72,30.41,8.72s22.63-4.14,28.23-12.42c.63-.94,1.22-1.93,1.78-2.96l.51,12.76h26.81l.65-60.38c.14-10.46-1.56-19.51-5.12-27.14-3.56-7.63-9.01-13.55-16.35-17.76ZM224.5,705.6c-2.18,3.56-5.12,6.47-8.83,8.72-3.71,2.26-7.96,3.38-12.75,3.38-5.23,0-9.3-.91-12.21-2.72-2.91-1.82-4.36-4.32-4.36-7.52,0-4.07,1.82-7.23,5.45-9.48,3.63-2.25,10.17-3.38,19.62-3.38h16.35c0,3.78-1.09,7.45-3.27,11.01Z"/>
    <path class="cls-1" d="M361.38,632.69c-6.1-3.49-13.44-5.23-22.01-5.23s-15.51,2.15-21.69,6.43c-4.06,2.82-7.51,6.47-10.38,10.92l-1.28-14.74h-27.03v108.98h28.77v-57.11c0-9.15,2-16.05,5.99-20.71,3.99-4.65,9.7-6.9,17.11-6.76,4.07,0,7.63.91,10.68,2.72,3.05,1.82,5.41,4.76,7.08,8.83,1.67,4.07,2.51,9.81,2.51,17.22v55.8h28.77v-61.68c.14-11.62-1.38-21.1-4.58-28.44-3.2-7.34-7.85-12.75-13.95-16.24Z"/>
    <path class="cls-1" d="M485.18,632.69c-6.1-3.49-13.44-5.23-22.01-5.23s-15.51,2.15-21.69,6.43c-4.06,2.82-7.51,6.47-10.38,10.92l-1.28-14.74h-27.03v108.98h28.77v-57.11c0-9.15,1.99-16.05,5.99-20.71,3.99-4.65,9.7-6.9,17.11-6.76,4.07,0,7.63.91,10.68,2.72,3.05,1.82,5.41,4.76,7.08,8.83,1.67,4.07,2.51,9.81,2.51,17.22v55.8h28.77v-61.68c.14-11.62-1.38-21.1-4.58-28.44-3.2-7.34-7.85-12.75-13.95-16.24Z"/>
    <path class="cls-1" d="M598.41,633.78c-7.34-4.21-16.53-6.32-27.57-6.32-9.16,0-16.89,1.42-23.21,4.25-6.32,2.83-11.44,6.47-15.37,10.9-3.92,4.43-6.9,8.97-8.94,13.62l25.28,8.72c2.62-4.21,5.81-7.34,9.59-9.37,3.78-2.03,7.99-3.05,12.64-3.05,5.08,0,9.12,1.27,12.1,3.81,2.98,2.54,5.16,6.14,6.54,10.79.55,1.87.97,3.93,1.3,6.1h-25.6c-14.1,0-25.03,2.94-32.8,8.83-7.77,5.89-11.66,14.64-11.66,26.26,0,10.61,3.6,18.82,10.79,24.63,7.19,5.81,17.33,8.72,30.41,8.72s22.63-4.14,28.23-12.42c.63-.94,1.22-1.93,1.78-2.96l.51,12.76h26.81l.65-60.38c.14-10.46-1.56-19.51-5.12-27.14-3.56-7.63-9.01-13.55-16.35-17.76ZM588.28,705.6c-2.18,3.56-5.12,6.47-8.83,8.72-3.71,2.26-7.96,3.38-12.75,3.38-5.23,0-9.3-.91-12.21-2.72-2.91-1.82-4.36-4.32-4.36-7.52,0-4.07,1.82-7.23,5.45-9.48,3.63-2.25,10.17-3.38,19.62-3.38h16.35c0,3.78-1.09,7.45-3.27,11.01Z"/>
    <path class="cls-1" d="M730.49,634.43c-7.34-4.65-16.02-6.97-26.05-6.97-9.15,0-16.89,2.33-23.21,6.97-3.77,2.77-6.99,6.24-9.7,10.38v-58.33h-28.77v152.57h27.25l1.15-15.32c2.78,4.41,6.14,8.07,10.07,10.96,6.32,4.65,14.06,6.97,23.21,6.97,10.03,0,18.71-2.33,26.05-6.97,7.34-4.65,13.04-11.26,17.11-19.84,4.07-8.57,6.1-18.67,6.1-30.3s-2.04-21.9-6.1-30.41c-4.07-8.5-9.77-15.07-17.11-19.73ZM720.36,700.47c-2.33,4.65-5.49,8.28-9.48,10.9-4,2.62-8.61,3.92-13.84,3.92-4.94,0-9.34-1.31-13.19-3.92-3.85-2.62-6.87-6.25-9.05-10.9-2.18-4.65-3.27-9.95-3.27-15.91s1.09-11.22,3.27-15.8c2.18-4.58,5.23-8.17,9.15-10.79s8.35-3.92,13.3-3.92c5.23,0,9.84,1.31,13.84,3.92,3.99,2.62,7.12,6.21,9.37,10.79,2.25,4.58,3.38,9.85,3.38,15.8s-1.16,11.26-3.49,15.91Z"/>
    <path class="cls-1" d="M788.8,579.29c-4.36,0-8.21,1.63-11.55,4.9-3.34,3.27-5.01,7.16-5.01,11.66s1.67,8.39,5.01,11.66c3.34,3.27,7.19,4.9,11.55,4.9s8.39-1.63,11.66-4.9,4.9-7.16,4.9-11.66-1.63-8.39-4.9-11.66c-3.27-3.27-7.16-4.9-11.66-4.9Z"/>
    <rect class="cls-1" x="774.41" y="630.07" width="28.77" height="108.98"/>
    <path class="cls-1" d="M902.25,681.84c-4.29-3.85-9.99-6.65-17.11-8.39l-14.17-3.49c-3.78-.87-6.68-1.92-8.72-3.16-2.04-1.23-3.05-2.8-3.05-4.69,0-2.91,1.05-5.19,3.16-6.87,2.11-1.67,5.12-2.51,9.05-2.51s7.85.91,11.77,2.72c3.92,1.82,6.39,4.18,7.41,7.08l23.76-10.9c-1.6-4.8-4.51-9.01-8.72-12.64-4.22-3.63-9.26-6.46-15.15-8.5-5.88-2.03-12.24-3.05-19.07-3.05-13.22,0-23.43,3.05-30.62,9.15-7.19,6.1-10.79,14.75-10.79,25.94,0,7.85,3.01,14.79,9.05,20.82,6.03,6.03,14.28,10.43,24.74,13.19l10.03,2.62c3.63.87,6.5,1.93,8.61,3.16,2.1,1.24,3.16,3.16,3.16,5.78s-1.31,4.61-3.92,5.99c-2.62,1.38-6.32,2.07-11.12,2.07s-9.3-1.27-13.08-3.81c-3.78-2.54-6.76-5.56-8.94-9.05l-24.63,11.33c2.62,5.81,6.25,10.72,10.9,14.71,4.65,4,10.03,7.05,16.13,9.15,6.1,2.11,12.64,3.16,19.62,3.16,8.43,0,15.95-1.38,22.56-4.14,6.61-2.76,11.84-6.65,15.69-11.66,3.85-5.01,5.78-10.79,5.78-17.33,0-4.5-.98-9.12-2.94-13.84-1.96-4.72-5.09-9.01-9.37-12.86Z"/>
    <path class="cls-1" d="M1019.83,678.79c8.42-4.14,15.07-9.95,19.94-17.44,4.87-7.48,7.3-16.02,7.3-25.61s-2.33-18.27-6.97-25.61c-4.65-7.34-11.12-13.11-19.4-17.33-8.28-4.21-17.8-6.32-28.55-6.32h-56.67v152.57h29.86v-54.06h22.89l31.16,54.06h33.78l-35.35-59.36c.67-.3,1.35-.58,2-.91ZM965.34,613.73h25.5c7.41,0,13.48,2.04,18.2,6.1,4.72,4.07,7.08,9.37,7.08,15.91,0,4.22-1.06,7.99-3.16,11.33-2.11,3.34-4.94,5.96-8.5,7.85-3.56,1.89-7.6,2.83-12.1,2.83h-27.03v-44.03Z"/>
    <path class="cls-1" d="M1168.59,656.99c-4.87-9.66-11.33-17-19.4-22.01-8.06-5.01-16.89-7.52-26.48-7.52-11.04,0-20.82,2.43-29.32,7.3-8.5,4.87-15.18,11.59-20.05,20.16-4.87,8.57-7.3,18.45-7.3,29.64s2.36,21.07,7.08,29.64c4.72,8.58,11.22,15.29,19.51,20.16s17.8,7.3,28.55,7.3c8.57,0,16.2-1.17,22.89-3.49,6.68-2.32,12.46-5.7,17.33-10.14,4.87-4.43,8.83-9.7,11.88-15.8l-25.72-10.03c-2.04,4.07-4.94,7.38-8.72,9.92-3.78,2.54-8.65,3.81-14.6,3.81-4.94,0-9.56-1.05-13.84-3.16-4.29-2.1-7.77-5.16-10.46-9.16-2.24-3.33-3.54-7.15-3.91-11.44h79.87c0-13.8-2.44-25.54-7.3-35.2ZM1111.16,654.05c3.78-1.45,7.34-2.18,10.68-2.18s6.79.73,10.35,2.18c3.56,1.45,6.57,3.74,9.05,6.87,2.04,2.58,3.18,5.91,3.54,9.92h-47.22c.39-4.02,1.67-7.33,3.9-9.92,2.69-3.12,5.92-5.41,9.7-6.87Z"/>
    <polygon class="cls-1" points="1277.03 650.78 1277.03 630.07 1187.23 630.07 1187.23 653.83 1241.06 653.83 1187.23 718.13 1187.23 739.05 1277.24 739.05 1277.24 715.51 1223.19 715.51 1277.03 650.78"/>
    <path class="cls-1" d="M1393.31,656.99c-4.87-9.66-11.33-17-19.4-22.01-8.06-5.01-16.89-7.52-26.48-7.52-11.05,0-20.82,2.43-29.32,7.3-8.5,4.87-15.19,11.59-20.05,20.16-4.87,8.57-7.3,18.45-7.3,29.64s2.36,21.07,7.08,29.64c4.72,8.58,11.23,15.29,19.51,20.16s17.8,7.3,28.55,7.3c8.57,0,16.2-1.17,22.89-3.49,6.68-2.32,12.46-5.7,17.33-10.14,4.87-4.43,8.83-9.7,11.88-15.8l-25.72-10.03c-2.04,4.07-4.94,7.38-8.72,9.92-3.78,2.54-8.65,3.81-14.6,3.81-4.94,0-9.56-1.05-13.84-3.16-4.29-2.1-7.78-5.16-10.46-9.16-2.24-3.33-3.54-7.15-3.91-11.44h79.87c0-13.8-2.44-25.54-7.3-35.2ZM1335.87,654.05c3.78-1.45,7.34-2.18,10.68-2.18s6.79.73,10.35,2.18c3.56,1.45,6.57,3.74,9.05,6.87,2.04,2.58,3.18,5.91,3.54,9.92h-47.22c.39-4.02,1.67-7.33,3.9-9.92,2.69-3.12,5.92-5.41,9.7-6.87Z"/>
    <path class="cls-1" d="M1506.21,634.43c-7.34-4.65-16.02-6.97-26.05-6.97-9.15,0-16.89,2.33-23.21,6.97-3.95,2.91-7.32,6.57-10.11,10.98l-1.33-15.34h-27.03v152.57h28.77v-58.37c2.71,4.16,5.93,7.65,9.7,10.41,6.32,4.65,14.06,6.97,23.21,6.97,10.03,0,18.71-2.33,26.05-6.97,7.34-4.65,13.04-11.26,17.11-19.84,4.07-8.57,6.1-18.67,6.1-30.3s-2.04-21.9-6.1-30.41c-4.07-8.5-9.77-15.07-17.11-19.73ZM1496.07,700.47c-2.33,4.65-5.49,8.28-9.48,10.9-4,2.62-8.61,3.92-13.84,3.92-4.94,0-9.34-1.31-13.19-3.92-3.85-2.62-6.87-6.25-9.05-10.9-2.18-4.65-3.27-9.95-3.27-15.91s1.09-11.22,3.27-15.8c2.18-4.58,5.23-8.17,9.15-10.79s8.35-3.92,13.3-3.92c5.23,0,9.84,1.31,13.84,3.92,3.99,2.62,7.12,6.21,9.37,10.79,2.25,4.58,3.38,9.85,3.38,15.8s-1.16,11.26-3.49,15.91Z"/>
    <path class="cls-1" d="M1602.22,714.1c-1.74.65-3.34.98-4.8.98-3.92,0-6.9-1.2-8.94-3.6-2.04-2.4-3.05-5.92-3.05-10.57v-46.43h27.25v-24.41h-27.25v-34h-28.77v34h-17.65v24.41h17.65v52.75c0,11.04,3.08,19.54,9.26,25.5,6.17,5.96,15.29,8.94,27.35,8.94,4.21,0,8.46-.84,12.75-2.51,4.29-1.67,8.17-3.81,11.66-6.43l-10.03-21.58c-1.89,1.31-3.71,2.29-5.45,2.94Z"/>
    <path class="cls-1" d="M1730.71,656.99c-4.87-9.66-11.33-17-19.4-22.01-8.06-5.01-16.89-7.52-26.48-7.52-11.04,0-20.82,2.43-29.32,7.3-8.5,4.87-15.19,11.59-20.05,20.16-4.87,8.57-7.3,18.45-7.3,29.64s2.36,21.07,7.08,29.64c4.72,8.58,11.22,15.29,19.51,20.16,8.28,4.87,17.8,7.3,28.55,7.3,8.57,0,16.2-1.17,22.89-3.49,6.68-2.32,12.46-5.7,17.33-10.14,4.87-4.43,8.83-9.7,11.88-15.8l-25.72-10.03c-2.04,4.07-4.94,7.38-8.72,9.92-3.78,2.54-8.65,3.81-14.6,3.81-4.94,0-9.56-1.05-13.84-3.16-4.29-2.1-7.78-5.16-10.46-9.16-2.24-3.33-3.54-7.15-3.91-11.44h79.87c0-13.8-2.44-25.54-7.3-35.2ZM1673.28,654.05c3.78-1.45,7.34-2.18,10.68-2.18s6.79.73,10.35,2.18c3.56,1.45,6.57,3.74,9.05,6.87,2.04,2.58,3.18,5.91,3.54,9.92h-47.22c.38-4.02,1.67-7.33,3.9-9.92,2.69-3.12,5.92-5.41,9.7-6.87Z"/>
    <path class="cls-1" d="M1796.42,701.35c3.05-3.49,6.68-6.68,10.9-9.59l20.71-15.04c9.01-6.39,16.09-13.26,21.25-20.6,5.16-7.34,7.74-15.73,7.74-25.17s-2.22-17.47-6.65-24.52c-4.43-7.05-10.72-12.6-18.85-16.67-8.14-4.07-17.87-6.1-29.21-6.1-9.88,0-18.71,1.93-26.48,5.78-7.78,3.85-14.06,8.9-18.85,15.15-4.8,6.25-7.92,13.01-9.37,20.27l30.73,5.23c.87-3.34,2.4-6.46,4.58-9.37,2.18-2.91,4.98-5.23,8.39-6.97,3.41-1.74,7.3-2.62,11.66-2.62,5.08,0,9.37.87,12.86,2.62,3.49,1.74,6.14,4.14,7.96,7.19,1.82,3.05,2.72,6.47,2.72,10.24,0,3.05-.91,6.21-2.72,9.48-1.82,3.27-4.14,6.29-6.97,9.05-2.83,2.76-5.85,5.23-9.05,7.41l-23.1,16.57c-6.25,4.36-11.7,9.08-16.35,14.17-4.65,5.09-8.28,10.17-10.9,15.26-2.62,5.09-3.92,9.74-3.92,13.95v22.01h105.49v-26.16h-69.53c1.6-4.21,3.92-8.06,6.97-11.55Z"/>
    <path class="cls-1" d="M1973.41,683.47v-96.99h-31.6l-67.57,98.74v23.76h71.06v30.08h28.12v-30.08h26.59v-25.5h-26.59ZM1945.29,683.47h-40.32l40.32-59.07v59.07Z"/>
  </g>
  <g>
    <g>
      <path class="cls-1" d="M988.83,328.79c-2.85,4.32-6.13,8.91-9.78,13.59h9.78v-13.59Z"/>
      <path class="cls-1" d="M1010.07,328.78v13.59h9.79c-3.66-4.68-6.93-9.27-9.79-13.59Z"/>
      <path class="cls-1" d="M1200.84,297.42c-.42,2.01-1.78,3.73-3.72,4.56-1.83.78-45.52,19.2-100.09,19.2-19.1,0-36.88-2.26-52.05-5.25,5.84,4.52,11.81,9.67,17.59,15.45,3.62,3.62,6.99,7.31,10.11,10.99h162.41c4.98,0,9.02-4.04,9.02-9.02v-35.93h-43.29Z"/>
      <path class="cls-1" d="M936.33,331.38c5.78-5.78,11.76-10.93,17.59-15.45-15.17,2.99-32.95,5.25-52.05,5.25-54.57,0-98.25-18.42-100.09-19.2-1.94-.83-3.29-2.55-3.72-4.56h-43.29v35.93c0,4.98,4.04,9.02,9.02,9.02h162.41c3.12-3.68,6.49-7.37,10.11-10.99Z"/>
    </g>
    <g>
      <path class="cls-1" d="M975.51,239.57c-1.36-5.94-2.67-12.24-3.88-18.83h-9.76c4.99,6.42,9.54,12.75,13.64,18.83Z"/>
      <path class="cls-1" d="M1023.41,239.57c4.1-6.08,8.66-12.4,13.64-18.83h-9.76c-1.21,6.59-2.52,12.89-3.88,18.83Z"/>
      <path class="cls-1" d="M801.79,290.26c1.83-.78,45.52-19.2,100.09-19.2,16.47,0,31.94,1.67,45.58,4.04-16.64-10.86-35.5-25.08-53.25-42.83-3.81-3.81-7.44-7.66-10.92-11.53h-94.51V77.94h182.3c1.9-10.76,4.08-20.74,6.32-29.74h-213.58c-4.98,0-9.02,4.04-9.02,9.02v236.53h43.61c.62-1.54,1.81-2.82,3.39-3.49Z"/>
      <path class="cls-1" d="M1235.1,48.2h-213.58c2.24,9,4.42,18.98,6.32,29.74h28.12v120.57c2.39-2.56,4.82-5.11,7.35-7.64,8.36-8.36,16.92-15.91,25.37-22.7h-.88v-37.44h58.09c11.75-6.15,19.47-9.3,20.3-9.63.77-.31,1.57-.46,2.37-.46,1.66,0,3.29.65,4.51,1.87,1.8,1.8,2.36,4.51,1.41,6.88-.07.17-.26.64-.55,1.34h38.88v37.44h-58.36c-2.93,4.86-6.19,10-9.8,15.35h68.16v37.44h-97.37c-3.42,3.79-6.98,7.57-10.72,11.31-17.74,17.74-36.6,31.97-53.25,42.83,13.64-2.37,29.11-4.04,45.58-4.04,54.57,0,98.25,18.42,100.09,19.2,1.58.68,2.78,1.96,3.39,3.49h43.61V57.23c0-4.98-4.04-9.02-9.02-9.02ZM1212.79,115.38h-125v-37.44h125v37.44Z"/>
    </g>
    <path class="cls-1" d="M1097.85,394.51s-12.6-31.45-39.77-58.62c-21.15-21.15-44.89-33.47-54.37-37.9v-.21c12.2,4.58,49.37,17.02,93.33,17.02,53.89,0,97.58-18.69,97.58-18.69,0,0-43.69-18.69-97.58-18.69-49.9,0-91.03,16.01-96.85,18.39,6.52-2.73,56.45-24.5,100.01-68.05,46.69-46.69,68.36-100.74,68.36-100.74,0,0-54.05,21.66-100.74,68.36-43.24,43.24-64.99,92.74-67.98,99.84,3.31-8.07,27.98-70.86,27.98-147.16,0-81.77-28.36-148.06-28.36-148.06,0,0-28.36,66.29-28.36,148.06,0,76.29,24.68,139.09,27.98,147.16-2.99-7.1-24.75-56.61-67.98-99.84-46.69-46.69-100.74-68.36-100.74-68.36,0,0,21.66,54.05,68.36,100.74,43.56,43.56,93.49,65.32,100.01,68.05-5.82-2.37-46.94-18.39-96.85-18.39-53.89,0-97.58,18.69-97.58,18.69,0,0,43.69,18.69,97.58,18.69,43.96,0,81.13-12.43,93.33-17.02v.21c-9.48,4.42-33.22,16.74-54.37,37.89-27.17,27.17-39.77,58.62-39.77,58.62,0,0,31.45-12.6,58.62-39.77,18.15-18.15,29.79-38.2,35.53-49.51v89.29h8.49v-89.3c5.73,11.32,17.38,31.37,35.53,49.52,27.17,27.17,58.62,39.77,58.62,39.77Z"/>
  </g>
</svg>