<svg width="200" height="35" viewBox="0 0 200 35" fill="none" xmlns="http://www.w3.org/2000/svg">
<path d="M190.166 22.8543C190.839 22.7086 191.431 22.5447 191.941 22.3626C192.451 22.1805 192.916 21.9528 193.334 21.6797C193.772 21.4065 194.181 21.0696 194.564 20.6689C194.964 20.2682 195.392 19.7765 195.848 19.1937H198.661L197.869 22.8543H200L199.645 24.6846H197.487L196.367 30.0116C196.276 30.4305 196.203 30.8039 196.148 31.1317C196.094 31.4595 196.066 31.7145 196.066 31.8966C196.066 32.2608 196.194 32.4885 196.449 32.5795C196.722 32.6706 197.223 32.7161 197.951 32.7161L197.541 34.601C197.414 34.6375 197.214 34.6648 196.94 34.683C196.685 34.7012 196.394 34.7194 196.066 34.7376C195.757 34.7741 195.429 34.7923 195.083 34.7923C194.755 34.8105 194.464 34.8196 194.209 34.8196C193.753 34.8196 193.307 34.7832 192.87 34.7103C192.433 34.6557 192.041 34.5373 191.695 34.3552C191.349 34.1549 191.067 33.8726 190.848 33.5083C190.648 33.1441 190.548 32.6524 190.548 32.0332C190.548 31.8146 190.557 31.5414 190.575 31.2136C190.612 30.8858 190.675 30.5216 190.767 30.1209L191.914 24.6846H189.783L190.166 22.8543Z" fill="#4F772D"/>
<path d="M184.197 26.2964C184.215 26.2053 184.233 26.1143 184.251 26.0232C184.27 25.9322 184.279 25.832 184.279 25.7227C184.279 25.3949 184.215 25.0944 184.088 24.8212C183.978 24.5298 183.751 24.3841 183.405 24.3841C183.095 24.3841 182.785 24.5207 182.476 24.7939C182.166 25.0489 182.011 25.3949 182.011 25.832C182.011 26.1234 182.084 26.3601 182.23 26.5423C182.394 26.7062 182.603 26.8428 182.858 26.952C183.113 27.0613 183.395 27.1524 183.705 27.2252C184.033 27.298 184.352 27.3709 184.661 27.4437C185.098 27.553 185.508 27.6896 185.891 27.8535C186.291 27.9992 186.646 28.1995 186.956 28.4545C187.266 28.7095 187.511 29.0282 187.693 29.4106C187.876 29.7749 187.967 30.2302 187.967 30.7765C187.967 31.5414 187.785 32.188 187.42 32.7161C187.074 33.226 186.583 33.6449 185.945 33.9727C185.326 34.2823 184.588 34.5009 183.732 34.6284C182.895 34.7558 181.993 34.8196 181.028 34.8196C179.553 34.8196 178.333 34.7103 177.367 34.4918C176.402 34.2732 175.728 34.0638 175.346 33.8635L175.919 31.1317H179.607C179.589 31.2227 179.58 31.3138 179.58 31.4048C179.58 31.4777 179.58 31.5596 179.58 31.6507C179.58 32.0696 179.671 32.4065 179.853 32.6615C180.054 32.8982 180.39 33.0166 180.864 33.0166C181.392 33.0166 181.765 32.8709 181.984 32.5795C182.221 32.2699 182.339 31.9876 182.339 31.7327C182.339 31.4777 182.239 31.2592 182.039 31.077C181.857 30.8767 181.62 30.7128 181.328 30.5853C181.037 30.4396 180.709 30.3212 180.345 30.2302C179.999 30.1209 179.662 30.0207 179.334 29.9297C179.097 29.875 178.824 29.784 178.515 29.6565C178.223 29.529 177.941 29.3469 177.668 29.1101C177.395 28.8734 177.167 28.5729 176.985 28.2086C176.803 27.8262 176.712 27.3527 176.712 26.7881C176.712 25.9868 176.903 25.3221 177.285 24.7939C177.686 24.2475 178.196 23.8105 178.815 23.4826C179.453 23.1548 180.163 22.9181 180.946 22.7724C181.747 22.6267 182.549 22.5538 183.35 22.5538C184.352 22.5538 185.299 22.6449 186.191 22.827C187.083 23.0091 187.812 23.2459 188.376 23.5373L187.748 26.2964H184.197Z" fill="#4F772D"/>
<path d="M166.826 29.1101C166.753 29.5108 166.698 29.8933 166.662 30.2575C166.644 30.6217 166.635 30.9495 166.635 31.2409C166.635 31.4048 166.644 31.587 166.662 31.7873C166.68 31.9876 166.717 32.1789 166.771 32.361C166.844 32.5249 166.935 32.6706 167.045 32.7981C167.172 32.9073 167.345 32.962 167.564 32.962C167.727 32.962 167.91 32.9073 168.11 32.7981C168.328 32.6888 168.538 32.534 168.738 32.3337C168.957 32.1333 169.157 31.8875 169.339 31.5961C169.54 31.3047 169.694 30.9769 169.804 30.6126H174.284L173.574 33.5356C173.209 33.7724 172.79 33.9727 172.317 34.1366C171.843 34.3005 171.343 34.4371 170.814 34.5464C170.286 34.6375 169.749 34.7012 169.203 34.7376C168.656 34.7923 168.137 34.8196 167.646 34.8196C166.735 34.8196 165.888 34.7376 165.105 34.5737C164.322 34.4098 163.639 34.1275 163.056 33.7269C162.473 33.3262 162.009 32.7981 161.663 32.1424C161.335 31.4686 161.171 30.6399 161.171 29.6565C161.171 28.7641 161.308 27.8899 161.581 27.034C161.872 26.178 162.346 25.4222 163.001 24.7666C163.675 24.0927 164.568 23.5555 165.679 23.1548C166.808 22.7542 168.21 22.5538 169.886 22.5538C171.707 22.5538 173.073 22.8361 173.983 23.4007C174.912 23.9653 175.377 24.8485 175.377 26.0505C175.377 26.5423 175.304 27.0795 175.158 27.6623C175.012 28.2269 174.794 28.7095 174.502 29.1101H166.826ZM170.459 25.8593C170.459 25.2947 170.368 24.9123 170.186 24.712C170.004 24.5116 169.785 24.4115 169.53 24.4115C169.239 24.4115 168.966 24.5116 168.711 24.712C168.474 24.8941 168.256 25.149 168.055 25.4769C167.855 25.7865 167.673 26.1507 167.509 26.5696C167.345 26.9702 167.208 27.3982 167.099 27.8535H170.213C170.25 27.635 170.286 27.4073 170.323 27.1706C170.359 26.9702 170.386 26.7517 170.405 26.5149C170.441 26.2782 170.459 26.0596 170.459 25.8593Z" fill="#4F772D"/>
<path d="M148.062 22.8543H153.854L154.974 30.8858L158.962 22.8543H161.858L155.657 34.601H149.947L148.062 22.8543Z" fill="#4F772D"/>
<path d="M138.633 24.6027C139.015 24.2384 139.443 23.9015 139.917 23.5919C140.336 23.3369 140.828 23.1002 141.392 22.8816C141.957 22.6631 142.585 22.5538 143.277 22.5538C144.224 22.5538 145.007 22.7997 145.626 23.2914C146.246 23.7649 146.555 24.4206 146.555 25.2583C146.555 25.4951 146.528 25.7865 146.473 26.1325C146.419 26.4603 146.355 26.8063 146.282 27.1706C146.209 27.5348 146.127 27.9081 146.036 28.2906C145.963 28.6548 145.9 28.9827 145.845 29.274L144.698 34.601H139.152L140.655 27.4711C140.691 27.2343 140.736 26.9976 140.791 26.7608C140.846 26.5058 140.873 26.2782 140.873 26.0778C140.873 25.8047 140.8 25.5861 140.655 25.4222C140.527 25.2401 140.327 25.149 140.054 25.149C139.726 25.149 139.407 25.2674 139.097 25.5042C138.806 25.7409 138.578 25.9413 138.414 26.1052L136.611 34.601H131.039L133.525 22.8543H137.977L138.469 24.6027H138.633Z" fill="#4F772D"/>
<path d="M128.302 34.601H122.401L126.089 17.2542H132.017L128.302 34.601Z" fill="#4F772D"/>
<path d="M118.32 5.78061L119.14 13.8121L123.456 5.78061H126.352L119.768 17.5273C119.113 18.6747 118.448 19.558 117.774 20.1772C117.1 20.7964 116.363 21.2517 115.561 21.5431C114.778 21.8345 113.904 21.9984 112.939 22.0348C111.992 22.0894 110.908 22.1167 109.688 22.1167L110.098 20.2318C110.699 20.2318 111.254 20.2227 111.764 20.2045C112.292 20.1863 112.711 20.1316 113.021 20.0406C113.44 19.9313 113.74 19.731 113.922 19.4396C114.104 19.1664 114.195 18.7566 114.195 18.2103C114.195 17.846 114.159 17.4272 114.086 16.9536C114.031 16.4801 113.968 15.9793 113.895 15.4512L112.556 5.78061H118.32Z" fill="#4F772D"/>
<path d="M98.8912 6.79136C99.82 6.33606 100.767 6.00825 101.732 5.80792C102.716 5.58937 103.808 5.4801 105.01 5.4801C106.176 5.4801 107.141 5.57116 107.906 5.75328C108.671 5.9354 109.281 6.19947 109.736 6.5455C110.192 6.89153 110.51 7.3013 110.693 7.77481C110.875 8.24832 110.966 8.78557 110.966 9.38657C110.966 9.7326 110.938 10.1059 110.884 10.5066C110.847 10.9073 110.802 11.2442 110.747 11.5174L109.463 17.5273H105.065L104.573 15.779H104.409C103.827 16.4164 103.144 16.9081 102.361 17.2541C101.596 17.582 100.831 17.7459 100.066 17.7459C99.6287 17.7459 99.2008 17.6821 98.7819 17.5546C98.363 17.4272 97.9897 17.2359 97.6619 16.981C97.334 16.7078 97.07 16.3709 96.8696 15.9702C96.6693 15.5513 96.5691 15.0505 96.5691 14.4677C96.5691 13.5207 96.8241 12.774 97.334 12.2276C97.8622 11.6631 98.5451 11.2442 99.3829 10.971C100.239 10.6796 101.195 10.4975 102.251 10.4247C103.326 10.3518 104.4 10.3154 105.475 10.3154C105.511 10.1333 105.557 9.87829 105.611 9.55047C105.666 9.20445 105.693 8.90395 105.693 8.64898C105.693 8.32117 105.602 8.02067 105.42 7.74749C105.256 7.4561 104.901 7.3104 104.355 7.3104C103.717 7.3104 103.244 7.50163 102.934 7.88408C102.643 8.24832 102.452 8.69451 102.361 9.22266H98.3721L98.8912 6.79136ZM105.174 11.5993H104.683C104.154 11.5993 103.699 11.6722 103.317 11.8179C102.952 11.9453 102.652 12.1184 102.415 12.3369C102.197 12.5554 102.033 12.8013 101.923 13.0745C101.814 13.3477 101.76 13.6208 101.76 13.894C101.76 14.3311 101.869 14.6589 102.087 14.8775C102.324 15.096 102.597 15.2053 102.907 15.2053C103.289 15.2053 103.663 15.0687 104.027 14.7955C104.409 14.5223 104.646 14.1581 104.737 13.7028L105.174 11.5993Z" fill="#4F772D"/>
<path d="M78.8368 17.5273L82.5247 0.18042H89.8733C91.0024 0.18042 91.9859 0.298798 92.8236 0.535554C93.6796 0.754098 94.3807 1.12744 94.9271 1.65559C95.4917 2.18374 95.9105 2.87579 96.1837 3.73175C96.4751 4.58772 96.6208 5.6349 96.6208 6.87332C96.6208 8.20279 96.4478 9.50495 96.1018 10.7798C95.7739 12.0546 95.2185 13.1929 94.4354 14.1945C93.6523 15.1962 92.6233 16.0066 91.3484 16.6258C90.0918 17.2268 88.5347 17.5273 86.6771 17.5273H78.8368ZM86.3219 15.6151C86.9229 15.6151 87.4511 15.3692 87.9064 14.8775C88.3799 14.3675 88.7806 13.7301 89.1084 12.9652C89.4544 12.1821 89.7367 11.3261 89.9552 10.3973C90.192 9.45031 90.3741 8.53971 90.5016 7.66554C90.6473 6.79136 90.7474 6.00825 90.8021 5.31619C90.8749 4.62414 90.9114 4.13242 90.9114 3.84102C90.9114 3.27645 90.793 2.83937 90.5562 2.52976C90.3377 2.20195 89.9461 2.03804 89.3815 2.03804H88.0703L85.1473 15.6151H86.3219Z" fill="#4F772D"/>
<path d="M66.9768 15.7926C67.3592 15.4284 67.7872 15.0915 68.2607 14.7819C68.6796 14.5269 69.1713 14.2901 69.7359 14.0716C70.3005 13.853 70.9288 13.7438 71.6208 13.7438C72.5678 13.7438 73.351 13.9896 73.9702 14.4814C74.5894 14.9549 74.899 15.6105 74.899 16.4483C74.899 16.685 74.8717 16.9764 74.817 17.3224C74.7624 17.6502 74.6986 17.9963 74.6258 18.3605C74.553 18.7247 74.471 19.0981 74.3799 19.4805C74.3071 19.8448 74.2433 20.1726 74.1887 20.464L73.0414 25.791H67.4958L68.9983 18.661C69.0347 18.4242 69.0803 18.1875 69.1349 17.9507C69.1895 17.6958 69.2168 17.4681 69.2168 17.2678C69.2168 16.9946 69.144 16.7761 68.9983 16.6122C68.8708 16.43 68.6705 16.339 68.3973 16.339C68.0695 16.339 67.7508 16.4574 67.4412 16.6941C67.1498 16.9309 66.9221 17.1312 66.7582 17.2951L64.9552 25.791H59.3824L61.8683 14.0443H66.3211L66.8129 15.7926H66.9768Z" fill="#4F772D"/>
<path d="M50.6714 20.3001C50.5985 20.7007 50.5439 21.0832 50.5075 21.4474C50.4892 21.8117 50.4801 22.1395 50.4801 22.4309C50.4801 22.5948 50.4892 22.7769 50.5075 22.9772C50.5257 23.1776 50.5621 23.3688 50.6167 23.5509C50.6896 23.7148 50.7806 23.8605 50.8899 23.988C51.0174 24.0973 51.1904 24.1519 51.409 24.1519C51.5729 24.1519 51.755 24.0973 51.9553 23.988C52.1739 23.8787 52.3833 23.7239 52.5836 23.5236C52.8022 23.3233 53.0025 23.0774 53.1846 22.786C53.3849 22.4946 53.5398 22.1668 53.649 21.8026H58.1292L57.4189 24.7256C57.0547 24.9623 56.6358 25.1627 56.1623 25.3266C55.6888 25.4905 55.1879 25.6271 54.6598 25.7364C54.1316 25.8274 53.5944 25.8912 53.048 25.9276C52.5017 25.9822 51.9826 26.0095 51.4909 26.0095C50.5803 26.0095 49.7335 25.9276 48.9503 25.7637C48.1672 25.5998 47.4843 25.3175 46.9015 24.9168C46.3187 24.5161 45.8543 23.988 45.5083 23.3324C45.1805 22.6585 45.0166 21.8299 45.0166 20.8464C45.0166 19.9541 45.1531 19.0799 45.4263 18.2239C45.7177 17.368 46.1912 16.6122 46.8469 15.9565C47.5207 15.2827 48.4131 14.7454 49.524 14.3448C50.6532 13.9441 52.0555 13.7438 53.731 13.7438C55.5522 13.7438 56.9181 14.0261 57.8287 14.5906C58.7575 15.1552 59.2219 16.0385 59.2219 17.2405C59.2219 17.7322 59.149 18.2694 59.0033 18.8522C58.8576 19.4168 58.6391 19.8994 58.3477 20.3001H50.6714ZM54.3047 17.0492C54.3047 16.4847 54.2136 16.1022 54.0315 15.9019C53.8494 15.7016 53.6308 15.6014 53.3758 15.6014C53.0845 15.6014 52.8113 15.7016 52.5563 15.9019C52.3196 16.084 52.101 16.339 51.9007 16.6668C51.7003 16.9764 51.5182 17.3406 51.3543 17.7595C51.1904 18.1602 51.0538 18.5882 50.9445 19.0435H54.0588C54.0952 18.8249 54.1316 18.5973 54.1681 18.3605C54.2045 18.1602 54.2318 17.9416 54.25 17.7049C54.2864 17.4681 54.3047 17.2496 54.3047 17.0492Z" fill="#4F772D"/>
<path d="M35.7319 20.3001C35.659 20.7007 35.6044 21.0832 35.568 21.4474C35.5498 21.8117 35.5406 22.1395 35.5406 22.4309C35.5406 22.5948 35.5498 22.7769 35.568 22.9772C35.5862 23.1776 35.6226 23.3688 35.6772 23.5509C35.7501 23.7148 35.8411 23.8605 35.9504 23.988C36.0779 24.0973 36.2509 24.1519 36.4695 24.1519C36.6334 24.1519 36.8155 24.0973 37.0158 23.988C37.2344 23.8787 37.4438 23.7239 37.6441 23.5236C37.8627 23.3233 38.063 23.0774 38.2451 22.786C38.4455 22.4946 38.6003 22.1668 38.7095 21.8026H43.1897L42.4794 24.7256C42.1152 24.9623 41.6963 25.1627 41.2228 25.3266C40.7493 25.4905 40.2484 25.6271 39.7203 25.7364C39.1921 25.8274 38.6549 25.8912 38.1085 25.9276C37.5622 25.9822 37.0431 26.0095 36.5514 26.0095C35.6408 26.0095 34.794 25.9276 34.0108 25.7637C33.2277 25.5998 32.5448 25.3175 31.962 24.9168C31.3792 24.5161 30.9148 23.988 30.5688 23.3324C30.241 22.6585 30.0771 21.8299 30.0771 20.8464C30.0771 19.9541 30.2136 19.0799 30.4868 18.2239C30.7782 17.368 31.2517 16.6122 31.9074 15.9565C32.5812 15.2827 33.4736 14.7454 34.5845 14.3448C35.7137 13.9441 37.116 13.7438 38.7915 13.7438C40.6127 13.7438 41.9786 14.0261 42.8892 14.5906C43.818 15.1552 44.2824 16.0385 44.2824 17.2405C44.2824 17.7322 44.2095 18.2694 44.0638 18.8522C43.9181 19.4168 43.6996 19.8994 43.4082 20.3001H35.7319ZM39.3652 17.0492C39.3652 16.4847 39.2741 16.1022 39.092 15.9019C38.9099 15.7016 38.6913 15.6014 38.4363 15.6014C38.145 15.6014 37.8718 15.7016 37.6168 15.9019C37.3801 16.084 37.1615 16.339 36.9612 16.6668C36.7608 16.9764 36.5787 17.3406 36.4148 17.7595C36.2509 18.1602 36.1143 18.5882 36.0051 19.0435H39.1193C39.1557 18.8249 39.1921 18.5973 39.2286 18.3605C39.265 18.1602 39.2923 17.9416 39.3105 17.7049C39.3469 17.4681 39.3652 17.2496 39.3652 17.0492Z" fill="#4F772D"/>
<path d="M18.7839 14.0443H23.2367L23.6465 16.0931H23.8377C24.2566 15.4375 24.7938 14.882 25.4494 14.4267C26.1051 13.9714 26.9701 13.7438 28.0446 13.7438C28.1175 13.7438 28.2268 13.7529 28.3725 13.7711C28.5364 13.7711 28.7094 13.7984 28.8915 13.853C29.0918 13.8895 29.2922 13.9532 29.4925 14.0443C29.711 14.1171 29.9205 14.2264 30.1208 14.3721L28.9188 19.9996H25.9412C25.9047 18.8704 25.8046 18.0873 25.6407 17.6502C25.4768 17.1949 25.2127 16.9673 24.8484 16.9673C24.6663 16.9673 24.466 17.0128 24.2474 17.1039C24.0471 17.1767 23.8377 17.3497 23.6191 17.6229L21.8708 25.791H16.2979L18.7839 14.0443Z" fill="#4F772D"/>
<path d="M8.74174 17.8688H15.8171L14.2326 25.791H11.0091L10.4901 24.0426H10.3808C9.90731 24.589 9.34274 25.0534 8.68711 25.4358C8.04969 25.8183 7.21194 26.0095 6.17386 26.0095C5.37253 26.0095 4.59852 25.882 3.85183 25.6271C3.12335 25.3539 2.46772 24.935 1.88494 24.3704C1.32037 23.7877 0.865068 23.0319 0.519041 22.1031C0.173014 21.1742 0 20.0542 0 18.7429C0 17.3224 0.218543 15.9747 0.655631 14.6999C1.09272 13.4251 1.74835 12.305 2.62252 11.3398C3.4967 10.3563 4.58942 9.58233 5.90068 9.01776C7.21194 8.45318 8.74174 8.1709 10.4901 8.1709C11.8378 8.1709 13.0124 8.3257 14.0141 8.6353C15.0158 8.94491 15.9628 9.29093 16.8552 9.67339L15.8171 14.9731H11.2004C11.2186 14.7727 11.2459 14.536 11.2823 14.2628C11.3187 13.9896 11.3461 13.7073 11.3643 13.4159C11.3825 13.1063 11.4007 12.8058 11.4189 12.5145C11.4371 12.2231 11.4462 11.9681 11.4462 11.7496C11.4462 11.6039 11.4371 11.4399 11.4189 11.2578C11.4007 11.0575 11.3552 10.8663 11.2823 10.6841C11.2095 10.502 11.1002 10.3563 10.9545 10.2471C10.8088 10.1196 10.5994 10.0558 10.3262 10.0558C9.85267 10.0558 9.41559 10.2562 9.01492 10.6568C8.63247 11.0393 8.28644 11.5583 7.97684 12.214C7.66724 12.8514 7.39406 13.5799 7.1573 14.3994C6.93876 15.2189 6.74753 16.0567 6.58363 16.9126C6.43793 17.7504 6.31955 18.579 6.22849 19.3986C6.15564 20.1999 6.11922 20.9011 6.11922 21.5021C6.11922 21.6842 6.12833 21.9118 6.14654 22.185C6.16475 22.4582 6.21939 22.7314 6.31045 23.0045C6.41972 23.2595 6.56541 23.4872 6.74753 23.6875C6.94786 23.8696 7.23015 23.9607 7.59439 23.9607C8.19538 23.9607 8.77817 23.6329 9.34274 22.9772C9.90731 22.3216 10.3353 21.2289 10.6267 19.6991H8.33197L8.74174 17.8688Z" fill="#4F772D"/>
</svg>
